# xmcd
#
# Track frame offsets:
#	150
#	15662
#	30827
#	43705
#	56182
#	69250
#	84575
#	96575
#	111530
#	122162
#	138847
#	150460
#	163547
#	176565
#
# Disc length: 2557
#
# Revision: 1
# Processed by: cddbd v1.5.1PL0 Copyright (c) Steve Scherf et al.
# Submitted via: VisiTrax 2.9.5.180 - For more info visit www.synapsa.com
# Normalized: r0:DSETVAR1
#
DISCID=b509fb0e
DTITLE=Various Artist - Mr Music Country 06-93
DYEAR=1993
DGENRE=Country
TTITLE0=George Jones - I Don't Need your Rockin' Chair
TTITLE1=The Mavericks - Mr. Jones
TTITLE2=Sammi Smith - Here Comes That Rainbow Again
TTITLE3=McBride and The Ride - Hangin' In And Hangin' On
TTITLE4=Rick Fryefield - One Too many Memories
TTITLE5=sandra Brown - House Across The Street
TTITLE6=Mark Collie - The Heart Of The Matter
TTITLE7=Marty Stuart - I'm Blue, I'm lonesom
TTITLE8=Lisa Rich - Out Of Clear Blue Sky
TTITLE9=George Strait - Trains Make Me Lonesome
TTITLE10=Loretta Lynn - The Pill
TTITLE11=Marty Brown - No Honky Tonkin' Tonight
TTITLE12=Allen Borden - Whiskey Take Me Away
TTITLE13=Tracy Bird - Someone To Give My Love To
EXTD=
EXTT0=
EXTT1=
EXTT2=
EXTT3=
EXTT4=
EXTT5=
EXTT6=
EXTT7=
EXTT8=
EXTT9=
EXTT10=
EXTT11=
EXTT12=
EXTT13=
PLAYORDER=
